<svg xmlns="http://www.w3.org/2000/svg" width="310" height="53" viewBox="0 0 310 53">
    <g fill="none" fill-rule="evenodd">
        <text fill="#E76C24" font-family="Helvetica" font-size="15" transform="translate(65 34)">
            <tspan x="0" y="15">Все о криптовалютах и блокчейне</tspan>
        </text>
        <g transform="translate(66 2)">
            <path fill="#E76C24" fill-rule="nonzero" stroke="#E76C24" stroke-width="2" d="M12.271 21.955c.122 0 .122 0 .243.127l.486.508c-.364.38-.729.76-1.093 1.014-.365.254-.85.508-1.215.762-.486.253-.972.38-1.458.507C8.626 25 8.019 25 7.41 25c-1.093 0-2.065-.254-3.037-.634s-1.701-1.015-2.309-1.65c-.607-.76-1.215-1.649-1.579-2.664C.121 19.037 0 17.896 0 16.5c0-1.269.243-2.41.607-3.425.365-1.015.85-1.903 1.58-2.665.729-.76 1.458-1.268 2.43-1.776C5.589 8.254 6.56 8 7.776 8c1.093 0 2.065.127 2.916.507.85.381 1.579.889 2.308 1.523l-.364.507c0 .127-.122.127-.243.127-.122 0-.243-.127-.486-.254-.243-.126-.486-.38-.85-.507-.365-.254-.851-.38-1.337-.507a8.117 8.117 0 0 0-1.944-.254c-.972 0-1.823.127-2.673.507-.85.38-1.458.888-2.066 1.523-.607.634-.972 1.395-1.336 2.283-.365.888-.486 1.903-.486 3.045s.121 2.157.486 3.172c.364.888.729 1.649 1.336 2.283.608.635 1.215 1.142 2.066 1.523.729.38 1.58.507 2.551.507.608 0 1.094 0 1.58-.127s.85-.254 1.215-.38c.364-.127.729-.381 1.093-.635.365-.253.608-.507.972-.76-.364-.128-.364-.128-.243-.128zM197.271 21.955c.122 0 .122 0 .243.127l.486.508c-.364.38-.729.76-1.093 1.014-.365.254-.85.508-1.215.762-.486.253-.972.38-1.458.507-.608.127-1.215.127-1.823.127-1.093 0-2.065-.254-3.037-.634s-1.701-1.015-2.309-1.65c-.607-.76-1.215-1.649-1.579-2.664-.365-1.015-.486-2.156-.486-3.552 0-1.269.243-2.41.607-3.425.365-1.015.85-1.903 1.58-2.665.729-.76 1.458-1.268 2.43-1.776.972-.38 1.944-.634 3.159-.634 1.093 0 2.065.127 2.916.507.85.381 1.579.889 2.308 1.523l-.364.507c0 .127-.122.127-.243.127-.122 0-.243-.127-.486-.254-.243-.126-.486-.38-.85-.507-.365-.254-.851-.38-1.337-.507a8.117 8.117 0 0 0-1.944-.254c-.972 0-1.823.127-2.673.507-.85.38-1.458.888-2.066 1.523-.607.634-.972 1.395-1.336 2.283-.365.888-.486 1.903-.486 3.045s.121 2.157.486 3.172c.364.888.729 1.649 1.336 2.283.608.635 1.215 1.142 2.066 1.523.729.38 1.58.507 2.551.507.608 0 1.094 0 1.58-.127s.85-.254 1.215-.38c.364-.127.729-.381 1.093-.635.365-.253.608-.507.972-.76-.364-.128-.364-.128-.243-.128zM36 16.564a9.816 9.816 0 0 1-.635 3.451c-.38 1.023-.889 1.917-1.65 2.684-.636.767-1.525 1.278-2.54 1.662-1.016.383-2.032.639-3.175.639a8.272 8.272 0 0 1-3.175-.64c-1.015-.383-1.777-1.022-2.54-1.66-.634-.768-1.27-1.662-1.65-2.685A9.816 9.816 0 0 1 20 16.564c0-1.278.254-2.429.635-3.451.38-1.023.889-1.918 1.65-2.684.636-.767 1.525-1.279 2.54-1.79C25.841 8.256 26.857 8 28 8c1.143 0 2.286.256 3.175.64 1.015.383 1.777 1.022 2.54 1.789.634.766 1.27 1.661 1.65 2.684a9.816 9.816 0 0 1 .635 3.45zm-1.27 0c0-1.15-.127-2.173-.508-3.196-.38-.894-.762-1.661-1.397-2.3-.635-.64-1.27-1.15-2.158-1.534-.762-.384-1.778-.511-2.667-.511-1.016 0-1.905.127-2.667.51-.762.384-1.523.896-2.158 1.535-.635.639-1.016 1.406-1.397 2.3-.381.895-.508 1.918-.508 3.196 0 1.15.127 2.173.508 3.195.38.895.762 1.662 1.397 2.301.635.64 1.27 1.15 2.158 1.534.762.383 1.778.511 2.667.511 1.016 0 1.905-.128 2.667-.511.762-.383 1.523-.767 2.158-1.534.635-.639 1.016-1.406 1.397-2.3.381-.895.508-1.918.508-3.196zM221 16.564a9.816 9.816 0 0 1-.635 3.451c-.38 1.023-.889 1.917-1.65 2.684-.636.767-1.525 1.278-2.54 1.662-1.016.383-2.032.639-3.175.639a8.272 8.272 0 0 1-3.175-.64c-1.015-.383-1.777-1.022-2.54-1.66-.634-.768-1.27-1.662-1.65-2.685a9.816 9.816 0 0 1-.635-3.451c0-1.278.254-2.429.635-3.451.38-1.023.889-1.918 1.65-2.684.636-.767 1.525-1.279 2.54-1.79C210.841 8.256 211.857 8 213 8c1.143 0 2.286.256 3.175.64 1.015.383 1.777 1.022 2.54 1.789.634.766 1.27 1.661 1.65 2.684a9.816 9.816 0 0 1 .635 3.45zm-1.27 0c0-1.15-.127-2.173-.508-3.196-.38-.894-.762-1.661-1.397-2.3-.635-.64-1.27-1.15-2.158-1.534-.762-.384-1.778-.511-2.667-.511-1.016 0-1.905.127-2.667.51-.762.384-1.523.896-2.158 1.535-.635.639-1.016 1.406-1.397 2.3-.381.895-.508 1.918-.508 3.196 0 1.15.127 2.173.508 3.195.38.895.762 1.662 1.397 2.301.635.64 1.27 1.15 2.158 1.534.762.383 1.778.511 2.667.511 1.016 0 1.905-.128 2.667-.511.762-.383 1.523-.767 2.158-1.534.635-.639 1.016-1.406 1.397-2.3.381-.895.508-1.918.508-3.196zM46 24h-2V8h2zM67 8.128v16.744h-.772c-.129 0-.129-.128-.258-.128L55.03 10.301V25H54V8.128h.901s.129.128.257.128L66.1 22.699V8H67v.128zM92 8v16h-.992V10.443v-.61l-6.326 11.114c-.124.244-.248.244-.496.244h-.124c-.248 0-.372-.122-.496-.244L76.992 9.71v14.168H76V8h1.116l.124.122 6.574 11.115c.124.244.248.488.248.732 0-.122.124-.244.124-.366s.124-.244.124-.366l6.326-11.115c0-.122.124-.122.248-.122H92zM243 8v16h-.992V10.443v-.61l-6.326 11.114c-.124.244-.248.244-.496.244h-.124c-.248 0-.372-.122-.496-.244L227.992 9.71v14.168H227V8h1.116l.124.122 6.574 11.115c.124.244.248.488.248.732 0-.122.124-.244.124-.366s.124-.244.124-.366l6.326-11.115c0-.122.124-.122.248-.122H243zM114 24h-.86c-.122 0-.245 0-.245-.122-.123 0-.123-.122-.123-.244l-1.842-4.642h-7.86l-1.842 4.642c0 .122-.123.122-.123.244-.123 0-.123.122-.245.122H100l6.509-16h1.105L114 24zm-3.561-5.863l-3.316-8.06c-.123-.245-.246-.611-.369-.978 0 .122-.122.367-.122.489s-.123.366-.123.488l-3.316 8.061h7.246zM134 8.128v16.744h-.772c-.129 0-.129-.128-.258-.128l-10.94-14.443V25H121V8.128h.901s.129.128.257.128L133.1 22.699V8H134v.128zM145 24h-2V8h2zM166 24h-.86c-.122 0-.245 0-.245-.122-.123 0-.123-.122-.123-.244l-1.842-4.642h-7.86l-1.842 4.642c0 .122-.123.122-.123.244-.123 0-.123.122-.245.122H152l6.509-16h1.105L166 24zm-3.561-5.863l-3.316-8.06c-.123-.245-.246-.611-.369-.978 0 .122-.122.367-.122.489s-.123.366-.123.488l-3.316 8.061h7.246z"/>
            <circle cx="176.5" cy="24.5" r="1.5" fill="#E76C24"/>
            <path fill="#252525" d="M50 0h113v7H50z"/>
        </g>
        <g fill="#E76C24" fill-rule="nonzero" stroke="#E76C24">
            <path d="M31.235 34.616h1.07V18.288h-1.07c-.097 0-.097.096-.194.192l-6.512 11.334c-.097.096-.097.192-.194.384-.097.096-.097.288-.194.384-.098-.288-.195-.48-.292-.672l-6.706-11.334c-.097-.096-.097-.192-.194-.192h-1.166v16.328h1.069V20.689v-.672l6.706 11.43a.535.535 0 0 0 .485.287h.195a.535.535 0 0 0 .486-.288l6.511-11.43v14.6z"/>
            <path d="M32.166 41.586c-1.687.681-3.374 1.168-5.26 1.362-.794.098-1.588.195-2.382.195-.993 0-1.986-.097-2.978-.195-1.886-.292-3.573-.778-5.26-1.557a18.504 18.504 0 0 1-4.666-3.114c-3.474-3.115-5.36-7.3-5.36-11.777 0-4.477 1.886-8.565 5.36-11.777a18.504 18.504 0 0 1 4.665-3.114c1.688-.779 3.474-1.265 5.26-1.557 1.788-.292 3.574-.292 5.36-.098 1.787.195 3.574.681 5.261 1.363 1.886.778 3.673 1.946 5.162 3.309L41 11.219c-2.58-2.335-5.658-4.087-8.933-5.06V1h-5.26v4.088c-1.787-.195-3.574-.195-5.36.097V1.097h-5.26v5.256c-3.078 1.07-5.956 2.725-8.338 4.964C3.382 15.307 1 20.757 1 26.403c0 5.645 2.481 11.095 6.849 15.183 2.382 2.238 5.26 3.893 8.337 4.964V52h5.26v-4.282c.993.097 1.986.194 2.978.194.794 0 1.588 0 2.382-.097V52h5.261v-5.256A26.116 26.116 0 0 0 41 41.684l-3.672-3.407c-1.589 1.46-3.276 2.53-5.162 3.309z"/>
        </g>
        <path fill="#E76C24" fill-rule="nonzero" stroke="#E76C24" d="M49 2h1v49h-1z"/>
    </g>
</svg>
